<svg width="283" height="45" viewBox="0 0 283 45" fill="none" xmlns="http://www.w3.org/2000/svg">
<path d="M76.7732 25.5367L73.4154 29.0647V35.4367H67.6641V10.2367H73.4154V22.0087L84.4893 10.2367H90.9193L80.5598 21.4687L91.5266 35.4367H84.775L76.7732 25.5367ZM104.931 10.2367C107.146 10.2367 109.063 10.6087 110.682 11.3527C112.325 12.0967 113.587 13.1527 114.469 14.5207C115.35 15.8887 115.79 17.5087 115.79 19.3807C115.79 21.2287 115.35 22.8487 114.469 24.2407C113.587 25.6087 112.325 26.6647 110.682 27.4087C109.063 28.1287 107.146 28.4887 104.931 28.4887H99.8939V35.4367H94.1069V10.2367H104.931ZM104.609 23.7367C106.348 23.7367 107.669 23.3647 108.574 22.6207C109.479 21.8527 109.932 20.7727 109.932 19.3807C109.932 17.9647 109.479 16.8847 108.574 16.1407C107.669 15.3727 106.348 14.9887 104.609 14.9887H99.8939V23.7367H104.609ZM119.922 10.2367H125.709V35.4367H119.922V10.2367ZM130.536 23.0527H140.645V27.5527H130.536V23.0527ZM163.784 22.3327C165.213 22.7887 166.332 23.5567 167.142 24.6367C167.952 25.6927 168.356 27.0007 168.356 28.5607C168.356 30.7687 167.499 32.4727 165.784 33.6727C164.094 34.8487 161.617 35.4367 158.354 35.4367H145.423V10.2367H157.64C160.688 10.2367 163.022 10.8247 164.641 12.0007C166.285 13.1767 167.106 14.7727 167.106 16.7887C167.106 18.0127 166.809 19.1047 166.213 20.0647C165.642 21.0247 164.832 21.7807 163.784 22.3327ZM151.174 14.6287V20.5687H156.925C158.354 20.5687 159.438 20.3167 160.176 19.8127C160.914 19.3087 161.283 18.5647 161.283 17.5807C161.283 16.5967 160.914 15.8647 160.176 15.3847C159.438 14.8807 158.354 14.6287 156.925 14.6287H151.174ZM157.926 31.0447C159.45 31.0447 160.593 30.7927 161.355 30.2887C162.141 29.7847 162.534 29.0047 162.534 27.9487C162.534 25.8607 160.998 24.8167 157.926 24.8167H151.174V31.0447H157.926ZM184.848 35.8687C182.252 35.8687 179.906 35.3047 177.811 34.1767C175.739 33.0487 174.107 31.5007 172.917 29.5327C171.75 27.5407 171.166 25.3087 171.166 22.8367C171.166 20.3647 171.75 18.1447 172.917 16.1767C174.107 14.1847 175.739 12.6247 177.811 11.4967C179.906 10.3687 182.252 9.80469 184.848 9.80469C187.444 9.80469 189.778 10.3687 191.849 11.4967C193.921 12.6247 195.553 14.1847 196.743 16.1767C197.934 18.1447 198.53 20.3647 198.53 22.8367C198.53 25.3087 197.934 27.5407 196.743 29.5327C195.553 31.5007 193.921 33.0487 191.849 34.1767C189.778 35.3047 187.444 35.8687 184.848 35.8687ZM184.848 30.9007C186.324 30.9007 187.658 30.5647 188.849 29.8927C190.04 29.1967 190.968 28.2367 191.635 27.0127C192.326 25.7887 192.671 24.3967 192.671 22.8367C192.671 21.2767 192.326 19.8847 191.635 18.6607C190.968 17.4367 190.04 16.4887 188.849 15.8167C187.658 15.1207 186.324 14.7727 184.848 14.7727C183.371 14.7727 182.038 15.1207 180.847 15.8167C179.656 16.4887 178.716 17.4367 178.025 18.6607C177.358 19.8847 177.025 21.2767 177.025 22.8367C177.025 24.3967 177.358 25.7887 178.025 27.0127C178.716 28.2367 179.656 29.1967 180.847 29.8927C182.038 30.5647 183.371 30.9007 184.848 30.9007ZM218.998 30.0367H207.388L205.173 35.4367H199.243L210.389 10.2367H216.104L227.285 35.4367H221.212L218.998 30.0367ZM217.176 25.6087L213.211 15.9607L209.245 25.6087H217.176ZM245.812 35.4367L240.989 28.4167H240.703H235.666V35.4367H229.879V10.2367H240.703C242.918 10.2367 244.835 10.6087 246.455 11.3527C248.098 12.0967 249.36 13.1527 250.241 14.5207C251.122 15.8887 251.563 17.5087 251.563 19.3807C251.563 21.2527 251.11 22.8727 250.205 24.2407C249.324 25.5847 248.062 26.6167 246.419 27.3367L252.027 35.4367H245.812ZM245.704 19.3807C245.704 17.9647 245.252 16.8847 244.347 16.1407C243.442 15.3727 242.12 14.9887 240.382 14.9887H235.666V23.7727H240.382C242.12 23.7727 243.442 23.3887 244.347 22.6207C245.252 21.8527 245.704 20.7727 245.704 19.3807ZM256.148 10.2367H267.508C270.223 10.2367 272.616 10.7647 274.688 11.8207C276.784 12.8527 278.403 14.3167 279.546 16.2127C280.713 18.1087 281.297 20.3167 281.297 22.8367C281.297 25.3567 280.713 27.5647 279.546 29.4607C278.403 31.3567 276.784 32.8327 274.688 33.8887C272.616 34.9207 270.223 35.4367 267.508 35.4367H256.148V10.2367ZM267.222 30.6487C269.722 30.6487 271.711 29.9527 273.188 28.5607C274.688 27.1447 275.438 25.2367 275.438 22.8367C275.438 20.4367 274.688 18.5407 273.188 17.1487C271.711 15.7327 269.722 15.0247 267.222 15.0247H261.935V30.6487H267.222Z" fill="#2D2D2D"/>
<path d="M7.54681 11.2012H0V36.1709H7.54681V11.2012Z" fill="#FFCA3A"/>
<path d="M19.2557 13.2832H11.7109V36.1723H19.2557V13.2832Z" fill="#FFD166"/>
<path d="M30.9588 17.4463H23.4141V36.1721H30.9588V17.4463Z" fill="#EF476F"/>
<path d="M42.6696 7.03711H35.125V36.1702H42.6696V7.03711Z" fill="#06D6A0"/>
<path d="M54.3766 7.03711H46.832V36.1702H54.3766V7.03711Z" fill="#06D6A0"/>
</svg>
