<svg width="62" height="78" viewBox="0 0 62 78" fill="none" xmlns="http://www.w3.org/2000/svg">
<path d="M15.4602 48.5231C15.1589 49.8562 14.7583 51.1995 14.5149 52.5032C14.1175 54.6986 14.4067 56.7059 15.6391 58.4753C16.6881 59.9318 17.77 61.2902 18.8768 62.7172C19.2098 63.1569 19.6006 63.5672 19.9335 64.007C20.1998 64.3589 20.2926 64.7994 20.0208 65.1823C19.8396 65.4376 19.4837 65.4974 19.1945 65.6452C19.1366 65.6748 19.0536 65.6359 18.9707 65.5969C15.4317 64.8434 12.398 66.3122 9.79124 68.9454C7.49774 71.2152 5.404 73.7489 3.21851 76.1261C2.90523 76.4895 2.59195 76.8529 2.26993 77.0988C2.07995 77.2365 1.68262 77.2769 1.4916 77.1305C1.30057 76.9842 1.14989 76.5732 1.20668 76.2595C1.22196 75.9264 1.39446 75.5537 1.55052 75.2299C1.86276 74.5824 2.17494 73.9349 2.54501 73.2579C4.00894 70.5988 4.44448 67.5704 4.88007 64.5421C5.04059 63.1996 4.71313 62.025 3.99702 61.0084C3.08114 59.7279 2.04197 58.673 0.87065 57.7263C0.488602 57.4336 -0.0921702 57.161 0.111994 56.4061C0.332482 55.6022 0.978723 55.6786 1.48418 55.7457C3.67175 56.0917 5.60613 55.1846 7.49791 53.974C9.44751 52.7339 11.1887 51.1123 12.622 49.1194C13.4211 48.0198 14.1787 46.9007 14.9614 45.8502C15.1262 45.644 15.2081 45.3989 15.3816 45.3102C15.6294 45.1429 16.0344 44.9359 16.184 45.0628C16.375 45.2092 16.4099 45.6793 16.4362 46.0319C16.4536 46.267 16.3303 46.4926 16.2484 46.7378C16.0355 47.3752 15.8226 48.0126 15.6262 48.6009C15.5431 48.562 15.5017 48.5425 15.4602 48.5231Z" fill="#FFCA3A"/>
<path d="M41.0533 42C40.391 42 39.831 41.5203 39.6706 40.8779C39.1593 38.8296 38.1805 36.6514 36.7343 34.3438C35.0208 31.5727 32.5781 29.0028 29.4062 26.6329C26.6476 24.5478 23.8887 23.1259 21.1303 22.3674C20.4766 22.1879 20 21.6084 20 20.9309C20 20.2665 20.4583 19.6937 21.0972 19.5114C23.8019 18.739 26.4074 17.4851 28.914 15.75C31.7941 13.7447 34.2003 11.3385 36.1329 8.53117C37.8421 6.03035 39.0156 3.55722 39.653 1.11117C39.8203 0.470522 40.3843 0 41.0463 0C41.7158 0 42.284 0.48087 42.4469 1.13035C42.8148 2.5967 43.3897 4.09743 44.1719 5.63287C45.1562 7.52865 46.414 9.35139 47.9452 11.1017C49.5129 12.8152 51.2632 14.3646 53.1952 15.75C55.7204 17.5399 58.2873 18.7974 60.8961 19.5224C61.5362 19.7004 62 20.2702 62 20.9343C62 21.6087 61.5222 22.183 60.8721 22.3613C59.2183 22.8148 57.516 23.5462 55.7657 24.5548C53.6511 25.7944 51.6823 27.2708 49.8593 28.9843C48.0365 30.6615 46.5416 32.4298 45.375 34.289C43.926 36.6015 42.946 38.7964 42.4359 40.8742C42.2773 41.5188 41.7167 42 41.0533 42Z" fill="#FFCA3A"/>
</svg>
